# xmcd
#
# Track frame offsets:
#	150
#	16377
#	32910
#	50830
#	71020
#	88960
#	105227
#	121075
#	134627
#	151962
#	167097
#	186930
#	204617
#	224782
#	242172
#	258415
#	276475
#	292435
#
# Disc length: 4071 seconds
#
# Revision: 0
# Processed by: cddbd v1.5PL3 Copyright (c) Steve Scherf et al.
# Submitted via: dBpowerAMP V4.0
#
DISCID=270fe512
DTITLE=Smokie - The Best Of Smokie
DYEAR=1900
DGENRE=Country
TTITLE0=Living Next Door To Alice
TTITLE1=Oh Carol
TTITLE2=If You Think You Know How To Love Me
TTITLE3=Boulevard Of Broken Dreams
TTITLE4=For A Few Dollars More
TTITLE5=My Heart Is True
TTITLE6=Take Good Care Of My Baby
TTITLE7=Something's Been Making Me Blue
TTITLE8=Tambourine Man
TTITLE9=I'll Meet You At Midnight
TTITLE10=Lay Back In The Arms Of Someone
TTITLE11=Think About The Night
TTITLE12=Wild Angels
TTITLE13=Norwegian Girl
TTITLE14=It's Your Life
TTITLE15=Rock Away Your Teardrops
TTITLE16=Don't Play You Rock 'N' Roll To Me
TTITLE17=Needles And Pins
EXTD=BB003,Ian Baker
EXTT0=
EXTT1=
EXTT2=
EXTT3=
EXTT4=
EXTT5=
EXTT6=
EXTT7=
EXTT8=
EXTT9=
EXTT10=
EXTT11=
EXTT12=
EXTT13=
EXTT14=
EXTT15=
EXTT16=
EXTT17=
PLAYORDER=
